<svg xmlns="http://www.w3.org/2000/svg" width="1440" height="470" viewBox="0 0 1440 470"><defs><linearGradient id="bg"><stop stop-color="#eff4fb"/><stop offset="1" stop-color="#fcf8ed"/></linearGradient><pattern id="grid" width="36" height="36" patternUnits="userSpaceOnUse"><path d="M36 0H0V36" fill="none" stroke="#5271AE" stroke-opacity=".07"/></pattern></defs><rect width="1440" height="470" rx="20" fill="url(#bg)"/><rect width="1440" height="470" fill="url(#grid)"/><text x="76" y="93" fill="#5271AE" font-family="Arial,sans-serif" font-size="15" letter-spacing="4">EXPERIMENTAL UNDERSTANDING · OPEN BENCHMARK</text><text x="72" y="185" fill="#233451" font-family="Arial,sans-serif" font-weight="bold" font-size="66">WhatWorkedBench</text><text x="76" y="242" fill="#5271AE" font-family="Arial,sans-serif" font-size="30">Run experiments. Recover understanding.</text><path d="M76 293h650" stroke="#5271AE" stroke-opacity=".2"/><text x="76" y="341" fill="#233451" font-family="Arial,sans-serif" font-size="22">36 tasks</text><text x="230" y="341" fill="#233451" font-family="Arial,sans-serif" font-size="22">30 sources</text><text x="414" y="341" fill="#233451" font-family="Arial,sans-serif" font-size="22">1,248 native outcomes</text><text x="76" y="398" fill="#5271AE" font-family="Arial,sans-serif" font-size="16">A complete view of what each component changes.</text><g transform="translate(1040 94) rotate(8 135 135)"><rect x="0" y="0" width="48" height="48" rx="9" fill="#5271AE" opacity="0.45"/><rect x="60" y="0" width="48" height="48" rx="9" fill="#F5CC7D" opacity="0.5333333333333333"/><rect x="120" y="0" width="48" height="48" rx="9" fill="#5271AE" opacity="0.6166666666666667"/><rect x="180" y="0" width="48" height="48" rx="9" fill="#F5CC7D" opacity="0.7"/><rect x="0" y="60" width="48" height="48" rx="9" fill="#70ACDE" opacity="0.5333333333333333"/><rect x="60" y="60" width="48" height="48" rx="9" fill="#FFA660" opacity="0.6166666666666667"/><rect x="120" y="60" width="48" height="48" rx="9" fill="#70ACDE" opacity="0.7"/><rect x="180" y="60" width="48" height="48" rx="9" fill="#FFA660" opacity="0.7833333333333333"/><rect x="0" y="120" width="48" height="48" rx="9" fill="#F5CC7D" opacity="0.6166666666666667"/><rect x="60" y="120" width="48" height="48" rx="9" fill="#5271AE" opacity="0.7"/><rect x="120" y="120" width="48" height="48" rx="9" fill="#F5CC7D" opacity="0.7833333333333333"/><rect x="180" y="120" width="48" height="48" rx="9" fill="#5271AE" opacity="0.8666666666666667"/><rect x="0" y="180" width="48" height="48" rx="9" fill="#FFA660" opacity="0.7"/><rect x="60" y="180" width="48" height="48" rx="9" fill="#70ACDE" opacity="0.7833333333333333"/><rect x="120" y="180" width="48" height="48" rx="9" fill="#FFA660" opacity="0.8666666666666667"/><rect x="180" y="180" width="48" height="48" rx="9" fill="#70ACDE" opacity="0.95"/></g><path d="M951 320c30 30 71 40 96 25" fill="none" stroke="#D85B59" stroke-width="2"/><circle cx="951" cy="320" r="5" fill="#D85B59"/></svg>